<mxfile host="app.diagrams.net" agent="Mozilla/5.0 (Windows NT 10.0; Win64; x64) AppleWebKit/537.36 (KHTML, like Gecko) Chrome/138.0.0.0 Safari/537.36" version="28.0.6">
  <diagram name="PÃ¡gina-1" id="PuR6PXavX1iiZgIphFz7">
    <mxGraphModel grid="1" page="1" gridSize="10" guides="1" tooltips="1" connect="1" arrows="1" fold="1" pageScale="1" pageWidth="827" pageHeight="1169" math="0" shadow="0">
      <root>
        <mxCell id="0" />
        <mxCell id="1" parent="0" />
        <mxCell id="wnuGWgDGQfipznTXfZxU-3" value="" style="shape=partialRectangle;whiteSpace=wrap;html=1;top=0;bottom=0;fillColor=none;rotation=90;" vertex="1" parent="1">
          <mxGeometry x="150" y="190" width="65" height="120" as="geometry" />
        </mxCell>
        <mxCell id="wnuGWgDGQfipznTXfZxU-6" value="" style="endArrow=none;html=1;rounded=0;exitX=1;exitY=0;exitDx=0;exitDy=0;" edge="1" parent="1" source="wnuGWgDGQfipznTXfZxU-3">
          <mxGeometry width="50" height="50" relative="1" as="geometry">
            <mxPoint x="286.25" y="256.25" as="sourcePoint" />
            <mxPoint x="276.25" y="246.25" as="targetPoint" />
          </mxGeometry>
        </mxCell>
        <mxCell id="wnuGWgDGQfipznTXfZxU-8" value="" style="endArrow=none;html=1;rounded=0;exitX=0;exitY=0;exitDx=0;exitDy=0;" edge="1" parent="1" source="wnuGWgDGQfipznTXfZxU-3">
          <mxGeometry width="50" height="50" relative="1" as="geometry">
            <mxPoint x="286.25" y="208.25" as="sourcePoint" />
            <mxPoint x="276.25" y="246.25" as="targetPoint" />
          </mxGeometry>
        </mxCell>
        <mxCell id="wnuGWgDGQfipznTXfZxU-11" value="" style="endArrow=none;html=1;rounded=0;entryX=1;entryY=1;entryDx=0;entryDy=0;" edge="1" parent="1" target="wnuGWgDGQfipznTXfZxU-3">
          <mxGeometry width="50" height="50" relative="1" as="geometry">
            <mxPoint x="90" y="250" as="sourcePoint" />
            <mxPoint x="113.25" y="278.25" as="targetPoint" />
          </mxGeometry>
        </mxCell>
        <mxCell id="wnuGWgDGQfipznTXfZxU-12" value="" style="endArrow=none;html=1;rounded=0;entryX=0;entryY=1;entryDx=0;entryDy=0;" edge="1" parent="1" target="wnuGWgDGQfipznTXfZxU-3">
          <mxGeometry width="50" height="50" relative="1" as="geometry">
            <mxPoint x="90" y="250" as="sourcePoint" />
            <mxPoint x="113.25" y="220" as="targetPoint" />
          </mxGeometry>
        </mxCell>
        <mxCell id="wnuGWgDGQfipznTXfZxU-13" value="" style="shape=partialRectangle;whiteSpace=wrap;html=1;top=0;bottom=0;fillColor=none;rotation=90;" vertex="1" parent="1">
          <mxGeometry x="360" y="190" width="65" height="120" as="geometry" />
        </mxCell>
        <mxCell id="wnuGWgDGQfipznTXfZxU-14" value="" style="endArrow=none;html=1;rounded=0;exitX=1;exitY=0;exitDx=0;exitDy=0;" edge="1" parent="1" source="wnuGWgDGQfipznTXfZxU-13">
          <mxGeometry width="50" height="50" relative="1" as="geometry">
            <mxPoint x="496.25" y="256.25" as="sourcePoint" />
            <mxPoint x="486.25" y="246.25" as="targetPoint" />
          </mxGeometry>
        </mxCell>
        <mxCell id="wnuGWgDGQfipznTXfZxU-15" value="" style="endArrow=none;html=1;rounded=0;exitX=0;exitY=0;exitDx=0;exitDy=0;" edge="1" parent="1" source="wnuGWgDGQfipznTXfZxU-13">
          <mxGeometry width="50" height="50" relative="1" as="geometry">
            <mxPoint x="496.25" y="208.25" as="sourcePoint" />
            <mxPoint x="486.25" y="246.25" as="targetPoint" />
          </mxGeometry>
        </mxCell>
        <mxCell id="wnuGWgDGQfipznTXfZxU-16" value="" style="endArrow=none;html=1;rounded=0;entryX=1;entryY=1;entryDx=0;entryDy=0;" edge="1" parent="1" target="wnuGWgDGQfipznTXfZxU-13">
          <mxGeometry width="50" height="50" relative="1" as="geometry">
            <mxPoint x="300" y="250" as="sourcePoint" />
            <mxPoint x="323.25" y="278.25" as="targetPoint" />
          </mxGeometry>
        </mxCell>
        <mxCell id="wnuGWgDGQfipznTXfZxU-17" value="" style="endArrow=none;html=1;rounded=0;entryX=0;entryY=1;entryDx=0;entryDy=0;" edge="1" parent="1" target="wnuGWgDGQfipznTXfZxU-13">
          <mxGeometry width="50" height="50" relative="1" as="geometry">
            <mxPoint x="300" y="250" as="sourcePoint" />
            <mxPoint x="323.25" y="220" as="targetPoint" />
          </mxGeometry>
        </mxCell>
        <mxCell id="wnuGWgDGQfipznTXfZxU-23" value="&lt;font style=&quot;vertical-align: inherit;&quot;&gt;&lt;font style=&quot;vertical-align: inherit;&quot;&gt;Idle&lt;/font&gt;&lt;/font&gt;" style="text;html=1;align=center;verticalAlign=middle;whiteSpace=wrap;rounded=0;" vertex="1" parent="1">
          <mxGeometry x="20" y="235" width="60" height="30" as="geometry" />
        </mxCell>
        <mxCell id="wnuGWgDGQfipznTXfZxU-24" value="" style="shape=partialRectangle;whiteSpace=wrap;html=1;top=0;bottom=0;fillColor=none;rotation=90;" vertex="1" parent="1">
          <mxGeometry x="160.88" y="292.5" width="65" height="120" as="geometry" />
        </mxCell>
        <mxCell id="wnuGWgDGQfipznTXfZxU-25" value="" style="endArrow=none;html=1;rounded=0;exitX=1;exitY=0;exitDx=0;exitDy=0;" edge="1" parent="1" source="wnuGWgDGQfipznTXfZxU-24">
          <mxGeometry width="50" height="50" relative="1" as="geometry">
            <mxPoint x="297.13" y="358.75" as="sourcePoint" />
            <mxPoint x="287.13" y="348.75" as="targetPoint" />
          </mxGeometry>
        </mxCell>
        <mxCell id="wnuGWgDGQfipznTXfZxU-26" value="" style="endArrow=none;html=1;rounded=0;exitX=0;exitY=0;exitDx=0;exitDy=0;" edge="1" parent="1" source="wnuGWgDGQfipznTXfZxU-24">
          <mxGeometry width="50" height="50" relative="1" as="geometry">
            <mxPoint x="297.13" y="310.75" as="sourcePoint" />
            <mxPoint x="287.13" y="348.75" as="targetPoint" />
          </mxGeometry>
        </mxCell>
        <mxCell id="wnuGWgDGQfipznTXfZxU-27" value="" style="endArrow=none;html=1;rounded=0;entryX=1;entryY=1;entryDx=0;entryDy=0;" edge="1" parent="1" target="wnuGWgDGQfipznTXfZxU-24">
          <mxGeometry width="50" height="50" relative="1" as="geometry">
            <mxPoint x="100.88" y="352.5" as="sourcePoint" />
            <mxPoint x="124.13" y="380.75" as="targetPoint" />
          </mxGeometry>
        </mxCell>
        <mxCell id="wnuGWgDGQfipznTXfZxU-28" value="" style="endArrow=none;html=1;rounded=0;entryX=0;entryY=1;entryDx=0;entryDy=0;" edge="1" parent="1" target="wnuGWgDGQfipznTXfZxU-24">
          <mxGeometry width="50" height="50" relative="1" as="geometry">
            <mxPoint x="100.88" y="352.5" as="sourcePoint" />
            <mxPoint x="124.13" y="322.5" as="targetPoint" />
          </mxGeometry>
        </mxCell>
        <mxCell id="wnuGWgDGQfipznTXfZxU-29" value="" style="shape=partialRectangle;whiteSpace=wrap;html=1;top=0;bottom=0;fillColor=none;rotation=90;" vertex="1" parent="1">
          <mxGeometry x="370.88" y="292.5" width="65" height="120" as="geometry" />
        </mxCell>
        <mxCell id="wnuGWgDGQfipznTXfZxU-30" value="" style="endArrow=none;html=1;rounded=0;exitX=1;exitY=0;exitDx=0;exitDy=0;" edge="1" parent="1" source="wnuGWgDGQfipznTXfZxU-29">
          <mxGeometry width="50" height="50" relative="1" as="geometry">
            <mxPoint x="507.13" y="358.75" as="sourcePoint" />
            <mxPoint x="497.13" y="348.75" as="targetPoint" />
          </mxGeometry>
        </mxCell>
        <mxCell id="wnuGWgDGQfipznTXfZxU-31" value="" style="endArrow=none;html=1;rounded=0;exitX=0;exitY=0;exitDx=0;exitDy=0;" edge="1" parent="1" source="wnuGWgDGQfipznTXfZxU-29">
          <mxGeometry width="50" height="50" relative="1" as="geometry">
            <mxPoint x="507.13" y="310.75" as="sourcePoint" />
            <mxPoint x="497.13" y="348.75" as="targetPoint" />
          </mxGeometry>
        </mxCell>
        <mxCell id="wnuGWgDGQfipznTXfZxU-32" value="" style="endArrow=none;html=1;rounded=0;entryX=1;entryY=1;entryDx=0;entryDy=0;" edge="1" parent="1" target="wnuGWgDGQfipznTXfZxU-29">
          <mxGeometry width="50" height="50" relative="1" as="geometry">
            <mxPoint x="310.88" y="352.5" as="sourcePoint" />
            <mxPoint x="334.13" y="380.75" as="targetPoint" />
          </mxGeometry>
        </mxCell>
        <mxCell id="wnuGWgDGQfipznTXfZxU-33" value="" style="endArrow=none;html=1;rounded=0;entryX=0;entryY=1;entryDx=0;entryDy=0;" edge="1" parent="1" target="wnuGWgDGQfipznTXfZxU-29">
          <mxGeometry width="50" height="50" relative="1" as="geometry">
            <mxPoint x="310.88" y="352.5" as="sourcePoint" />
            <mxPoint x="334.13" y="322.5" as="targetPoint" />
          </mxGeometry>
        </mxCell>
        <mxCell id="wnuGWgDGQfipznTXfZxU-39" value="&lt;font style=&quot;vertical-align: inherit;&quot;&gt;&lt;font style=&quot;vertical-align: inherit;&quot;&gt;Idle&lt;/font&gt;&lt;/font&gt;" style="text;html=1;align=center;verticalAlign=middle;whiteSpace=wrap;rounded=0;" vertex="1" parent="1">
          <mxGeometry x="20" y="337.5" width="60" height="30" as="geometry" />
        </mxCell>
        <mxCell id="wnuGWgDGQfipznTXfZxU-58" value="" style="endArrow=classic;html=1;rounded=0;" edge="1" parent="1">
          <mxGeometry width="50" height="50" relative="1" as="geometry">
            <mxPoint x="270" y="249.41" as="sourcePoint" />
            <mxPoint x="300" y="249.82000000000002" as="targetPoint" />
          </mxGeometry>
        </mxCell>
        <mxCell id="wnuGWgDGQfipznTXfZxU-59" value="" style="endArrow=classic;html=1;rounded=0;" edge="1" parent="1">
          <mxGeometry width="50" height="50" relative="1" as="geometry">
            <mxPoint x="280.88" y="351.91" as="sourcePoint" />
            <mxPoint x="310.88" y="352.32000000000005" as="targetPoint" />
          </mxGeometry>
        </mxCell>
        <mxCell id="wnuGWgDGQfipznTXfZxU-63" value="" style="endArrow=classic;html=1;rounded=0;" edge="1" parent="1">
          <mxGeometry width="50" height="50" relative="1" as="geometry">
            <mxPoint x="70.88" y="351.90999999999997" as="sourcePoint" />
            <mxPoint x="100.88" y="352.32000000000005" as="targetPoint" />
          </mxGeometry>
        </mxCell>
        <mxCell id="wnuGWgDGQfipznTXfZxU-64" value="" style="endArrow=classic;html=1;rounded=0;" edge="1" parent="1">
          <mxGeometry width="50" height="50" relative="1" as="geometry">
            <mxPoint x="60" y="249.41" as="sourcePoint" />
            <mxPoint x="90" y="249.82000000000002" as="targetPoint" />
          </mxGeometry>
        </mxCell>
        <mxCell id="wnuGWgDGQfipznTXfZxU-65" value="&lt;font style=&quot;vertical-align: inherit;&quot;&gt;&lt;font style=&quot;vertical-align: inherit;&quot;&gt;Citas&lt;/font&gt;&lt;/font&gt;" style="shape=umlFrame;whiteSpace=wrap;html=1;pointerEvents=0;" vertex="1" parent="1">
          <mxGeometry x="-140" y="185" width="870" height="355" as="geometry" />
        </mxCell>
        <mxCell id="wnuGWgDGQfipznTXfZxU-66" value="&lt;font style=&quot;vertical-align: inherit;&quot;&gt;&lt;font style=&quot;vertical-align: inherit;&quot;&gt;&amp;nbsp;Solicitar Cita&lt;/font&gt;&lt;/font&gt;" style="text;html=1;align=center;verticalAlign=middle;whiteSpace=wrap;rounded=0;" vertex="1" parent="1">
          <mxGeometry x="152.5" y="235" width="60" height="30" as="geometry" />
        </mxCell>
        <mxCell id="wnuGWgDGQfipznTXfZxU-67" value="&lt;font style=&quot;vertical-align: inherit;&quot;&gt;&lt;font style=&quot;vertical-align: inherit;&quot;&gt;&lt;font style=&quot;vertical-align: inherit;&quot;&gt;&lt;font style=&quot;vertical-align: inherit;&quot;&gt;Esperando ConfirmaciÃ³n&lt;/font&gt;&lt;/font&gt;&lt;/font&gt;&lt;/font&gt;" style="text;html=1;align=center;verticalAlign=middle;whiteSpace=wrap;rounded=0;" vertex="1" parent="1">
          <mxGeometry x="365" y="235" width="60" height="30" as="geometry" />
        </mxCell>
        <mxCell id="wnuGWgDGQfipznTXfZxU-69" value="&lt;font style=&quot;vertical-align: inherit;&quot;&gt;&lt;font style=&quot;vertical-align: inherit;&quot;&gt;&amp;nbsp;Revisar Cita&lt;/font&gt;&lt;/font&gt;" style="text;html=1;align=center;verticalAlign=middle;whiteSpace=wrap;rounded=0;" vertex="1" parent="1">
          <mxGeometry x="163.38" y="337.5" width="60" height="30" as="geometry" />
        </mxCell>
        <mxCell id="wnuGWgDGQfipznTXfZxU-70" value="&lt;font style=&quot;vertical-align: inherit;&quot;&gt;&lt;font style=&quot;vertical-align: inherit;&quot;&gt;Confirmar o cancelar&lt;/font&gt;&lt;/font&gt;" style="text;html=1;align=center;verticalAlign=middle;whiteSpace=wrap;rounded=0;" vertex="1" parent="1">
          <mxGeometry x="375.88" y="337.5" width="60" height="30" as="geometry" />
        </mxCell>
        <mxCell id="wnuGWgDGQfipznTXfZxU-76" value="{d1 â¤ 24h}" style="text;whiteSpace=wrap;html=1;" vertex="1" parent="1">
          <mxGeometry x="365" y="190" width="90" height="40" as="geometry" />
        </mxCell>
        <mxCell id="wnuGWgDGQfipznTXfZxU-77" value="{d3 â¤ 24h}" style="text;whiteSpace=wrap;html=1;" vertex="1" parent="1">
          <mxGeometry x="370.88" y="290" width="90" height="40" as="geometry" />
        </mxCell>
        <mxCell id="wnuGWgDGQfipznTXfZxU-79" value="&lt;font style=&quot;vertical-align: inherit;&quot;&gt;&lt;font style=&quot;vertical-align: inherit;&quot;&gt;Administrador&lt;/font&gt;&lt;/font&gt;" style="text;html=1;align=center;verticalAlign=middle;whiteSpace=wrap;rounded=0;" vertex="1" parent="1">
          <mxGeometry x="-70" y="337.5" width="60" height="30" as="geometry" />
        </mxCell>
        <mxCell id="wnuGWgDGQfipznTXfZxU-80" value="&lt;font style=&quot;vertical-align: inherit;&quot;&gt;&lt;font style=&quot;vertical-align: inherit;&quot;&gt;Cliente&lt;/font&gt;&lt;/font&gt;" style="text;html=1;align=center;verticalAlign=middle;whiteSpace=wrap;rounded=0;" vertex="1" parent="1">
          <mxGeometry x="-70" y="230" width="60" height="30" as="geometry" />
        </mxCell>
        <mxCell id="Efg6VkteEoBPWuXSdOXq-2" value="" style="shape=partialRectangle;whiteSpace=wrap;html=1;top=0;bottom=0;fillColor=none;rotation=90;" vertex="1" parent="1">
          <mxGeometry x="150" y="410" width="65" height="120" as="geometry" />
        </mxCell>
        <mxCell id="Efg6VkteEoBPWuXSdOXq-3" value="" style="endArrow=none;html=1;rounded=0;exitX=1;exitY=0;exitDx=0;exitDy=0;" edge="1" parent="1" source="Efg6VkteEoBPWuXSdOXq-2">
          <mxGeometry width="50" height="50" relative="1" as="geometry">
            <mxPoint x="286.25" y="476.25" as="sourcePoint" />
            <mxPoint x="276.25" y="466.25" as="targetPoint" />
          </mxGeometry>
        </mxCell>
        <mxCell id="Efg6VkteEoBPWuXSdOXq-4" value="" style="endArrow=none;html=1;rounded=0;exitX=0;exitY=0;exitDx=0;exitDy=0;" edge="1" parent="1" source="Efg6VkteEoBPWuXSdOXq-2">
          <mxGeometry width="50" height="50" relative="1" as="geometry">
            <mxPoint x="286.25" y="428.25" as="sourcePoint" />
            <mxPoint x="276.25" y="466.25" as="targetPoint" />
          </mxGeometry>
        </mxCell>
        <mxCell id="Efg6VkteEoBPWuXSdOXq-5" value="" style="endArrow=none;html=1;rounded=0;entryX=1;entryY=1;entryDx=0;entryDy=0;" edge="1" parent="1" target="Efg6VkteEoBPWuXSdOXq-2">
          <mxGeometry width="50" height="50" relative="1" as="geometry">
            <mxPoint x="90" y="470" as="sourcePoint" />
            <mxPoint x="113.25" y="498.25" as="targetPoint" />
          </mxGeometry>
        </mxCell>
        <mxCell id="Efg6VkteEoBPWuXSdOXq-6" value="" style="endArrow=none;html=1;rounded=0;entryX=0;entryY=1;entryDx=0;entryDy=0;" edge="1" parent="1" target="Efg6VkteEoBPWuXSdOXq-2">
          <mxGeometry width="50" height="50" relative="1" as="geometry">
            <mxPoint x="90" y="470" as="sourcePoint" />
            <mxPoint x="113.25" y="440" as="targetPoint" />
          </mxGeometry>
        </mxCell>
        <mxCell id="Efg6VkteEoBPWuXSdOXq-7" value="" style="shape=partialRectangle;whiteSpace=wrap;html=1;top=0;bottom=0;fillColor=none;rotation=90;" vertex="1" parent="1">
          <mxGeometry x="360" y="410" width="65" height="120" as="geometry" />
        </mxCell>
        <mxCell id="Efg6VkteEoBPWuXSdOXq-8" value="" style="endArrow=none;html=1;rounded=0;exitX=1;exitY=0;exitDx=0;exitDy=0;" edge="1" parent="1" source="Efg6VkteEoBPWuXSdOXq-7">
          <mxGeometry width="50" height="50" relative="1" as="geometry">
            <mxPoint x="496.25" y="476.25" as="sourcePoint" />
            <mxPoint x="486.25" y="466.25" as="targetPoint" />
          </mxGeometry>
        </mxCell>
        <mxCell id="Efg6VkteEoBPWuXSdOXq-9" value="" style="endArrow=none;html=1;rounded=0;exitX=0;exitY=0;exitDx=0;exitDy=0;" edge="1" parent="1" source="Efg6VkteEoBPWuXSdOXq-7">
          <mxGeometry width="50" height="50" relative="1" as="geometry">
            <mxPoint x="496.25" y="428.25" as="sourcePoint" />
            <mxPoint x="486.25" y="466.25" as="targetPoint" />
          </mxGeometry>
        </mxCell>
        <mxCell id="Efg6VkteEoBPWuXSdOXq-10" value="" style="endArrow=none;html=1;rounded=0;entryX=1;entryY=1;entryDx=0;entryDy=0;" edge="1" parent="1" target="Efg6VkteEoBPWuXSdOXq-7">
          <mxGeometry width="50" height="50" relative="1" as="geometry">
            <mxPoint x="300" y="470" as="sourcePoint" />
            <mxPoint x="323.25" y="498.25" as="targetPoint" />
          </mxGeometry>
        </mxCell>
        <mxCell id="Efg6VkteEoBPWuXSdOXq-11" value="" style="endArrow=none;html=1;rounded=0;entryX=0;entryY=1;entryDx=0;entryDy=0;" edge="1" parent="1" target="Efg6VkteEoBPWuXSdOXq-7">
          <mxGeometry width="50" height="50" relative="1" as="geometry">
            <mxPoint x="300" y="470" as="sourcePoint" />
            <mxPoint x="323.25" y="440" as="targetPoint" />
          </mxGeometry>
        </mxCell>
        <mxCell id="Efg6VkteEoBPWuXSdOXq-12" value="" style="shape=partialRectangle;whiteSpace=wrap;html=1;top=0;bottom=0;fillColor=none;rotation=90;" vertex="1" parent="1">
          <mxGeometry x="580" y="410" width="65" height="120" as="geometry" />
        </mxCell>
        <mxCell id="Efg6VkteEoBPWuXSdOXq-13" value="" style="endArrow=none;html=1;rounded=0;exitX=1;exitY=0;exitDx=0;exitDy=0;" edge="1" parent="1" source="Efg6VkteEoBPWuXSdOXq-12">
          <mxGeometry width="50" height="50" relative="1" as="geometry">
            <mxPoint x="716.25" y="476.25" as="sourcePoint" />
            <mxPoint x="706.25" y="466.25" as="targetPoint" />
          </mxGeometry>
        </mxCell>
        <mxCell id="Efg6VkteEoBPWuXSdOXq-14" value="" style="endArrow=none;html=1;rounded=0;exitX=0;exitY=0;exitDx=0;exitDy=0;" edge="1" parent="1" source="Efg6VkteEoBPWuXSdOXq-12">
          <mxGeometry width="50" height="50" relative="1" as="geometry">
            <mxPoint x="716.25" y="428.25" as="sourcePoint" />
            <mxPoint x="706.25" y="466.25" as="targetPoint" />
          </mxGeometry>
        </mxCell>
        <mxCell id="Efg6VkteEoBPWuXSdOXq-15" value="" style="endArrow=none;html=1;rounded=0;entryX=1;entryY=1;entryDx=0;entryDy=0;" edge="1" parent="1" target="Efg6VkteEoBPWuXSdOXq-12">
          <mxGeometry width="50" height="50" relative="1" as="geometry">
            <mxPoint x="520" y="470" as="sourcePoint" />
            <mxPoint x="543.25" y="498.25" as="targetPoint" />
          </mxGeometry>
        </mxCell>
        <mxCell id="Efg6VkteEoBPWuXSdOXq-16" value="" style="endArrow=none;html=1;rounded=0;entryX=0;entryY=1;entryDx=0;entryDy=0;" edge="1" parent="1" target="Efg6VkteEoBPWuXSdOXq-12">
          <mxGeometry width="50" height="50" relative="1" as="geometry">
            <mxPoint x="520" y="470" as="sourcePoint" />
            <mxPoint x="543.25" y="440" as="targetPoint" />
          </mxGeometry>
        </mxCell>
        <mxCell id="Efg6VkteEoBPWuXSdOXq-17" value="&lt;font style=&quot;vertical-align: inherit;&quot;&gt;&lt;font style=&quot;vertical-align: inherit;&quot;&gt;Idle&lt;/font&gt;&lt;/font&gt;" style="text;html=1;align=center;verticalAlign=middle;whiteSpace=wrap;rounded=0;" vertex="1" parent="1">
          <mxGeometry x="20" y="455" width="60" height="30" as="geometry" />
        </mxCell>
        <mxCell id="Efg6VkteEoBPWuXSdOXq-18" value="" style="endArrow=classic;html=1;rounded=0;" edge="1" parent="1">
          <mxGeometry width="50" height="50" relative="1" as="geometry">
            <mxPoint x="270" y="469.40999999999997" as="sourcePoint" />
            <mxPoint x="300" y="469.82000000000005" as="targetPoint" />
          </mxGeometry>
        </mxCell>
        <mxCell id="Efg6VkteEoBPWuXSdOXq-19" value="" style="endArrow=classic;html=1;rounded=0;" edge="1" parent="1">
          <mxGeometry width="50" height="50" relative="1" as="geometry">
            <mxPoint x="490" y="469.40999999999997" as="sourcePoint" />
            <mxPoint x="520" y="469.82000000000005" as="targetPoint" />
          </mxGeometry>
        </mxCell>
        <mxCell id="Efg6VkteEoBPWuXSdOXq-20" value="" style="endArrow=classic;html=1;rounded=0;" edge="1" parent="1">
          <mxGeometry width="50" height="50" relative="1" as="geometry">
            <mxPoint x="60" y="469.40999999999997" as="sourcePoint" />
            <mxPoint x="90" y="469.82000000000005" as="targetPoint" />
          </mxGeometry>
        </mxCell>
        <mxCell id="Efg6VkteEoBPWuXSdOXq-21" value="&lt;font style=&quot;vertical-align: inherit;&quot;&gt;&lt;font style=&quot;vertical-align: inherit;&quot;&gt;Genera NÂº Cita&amp;nbsp;&lt;/font&gt;&lt;/font&gt;" style="text;html=1;align=center;verticalAlign=middle;whiteSpace=wrap;rounded=0;" vertex="1" parent="1">
          <mxGeometry x="152.5" y="455" width="60" height="30" as="geometry" />
        </mxCell>
        <mxCell id="Efg6VkteEoBPWuXSdOXq-22" value="&lt;font style=&quot;vertical-align: inherit;&quot;&gt;&lt;font style=&quot;vertical-align: inherit;&quot;&gt;Actualiza BD&amp;nbsp;&lt;/font&gt;&lt;/font&gt;" style="text;html=1;align=center;verticalAlign=middle;whiteSpace=wrap;rounded=0;" vertex="1" parent="1">
          <mxGeometry x="354" y="455" width="60" height="30" as="geometry" />
        </mxCell>
        <mxCell id="Efg6VkteEoBPWuXSdOXq-23" value="&lt;font style=&quot;vertical-align: inherit;&quot;&gt;&lt;font style=&quot;vertical-align: inherit;&quot;&gt;Notifica&lt;/font&gt;&lt;/font&gt;" style="text;html=1;align=center;verticalAlign=middle;whiteSpace=wrap;rounded=0;" vertex="1" parent="1">
          <mxGeometry x="580" y="455" width="60" height="30" as="geometry" />
        </mxCell>
        <mxCell id="Efg6VkteEoBPWuXSdOXq-24" value="&lt;table&gt;&lt;tbody&gt;&lt;tr&gt;&lt;td data-start=&quot;1232&quot; data-end=&quot;1264&quot; data-col-size=&quot;sm&quot;&gt;&lt;/td&gt;&lt;/tr&gt;&lt;/tbody&gt;&lt;/table&gt;&lt;table&gt;&lt;tbody&gt;&lt;tr&gt;&lt;td data-start=&quot;1264&quot; data-end=&quot;1297&quot; data-col-size=&quot;sm&quot;&gt;&lt;code data-start=&quot;1266&quot; data-end=&quot;1278&quot;&gt;{d2 â¤ 5m}&lt;/code&gt;&lt;/td&gt;&lt;/tr&gt;&lt;/tbody&gt;&lt;/table&gt;" style="text;whiteSpace=wrap;html=1;" vertex="1" parent="1">
          <mxGeometry x="349" y="400" width="110" height="50" as="geometry" />
        </mxCell>
        <mxCell id="Efg6VkteEoBPWuXSdOXq-25" value="&lt;font style=&quot;vertical-align: inherit;&quot;&gt;&lt;font style=&quot;vertical-align: inherit;&quot;&gt;Sistema&lt;/font&gt;&lt;/font&gt;" style="text;html=1;align=center;verticalAlign=middle;whiteSpace=wrap;rounded=0;" vertex="1" parent="1">
          <mxGeometry x="-70" y="450" width="60" height="30" as="geometry" />
        </mxCell>
        <mxCell id="Efg6VkteEoBPWuXSdOXq-26" value="" style="endArrow=classic;html=1;rounded=0;edgeStyle=orthogonalEdgeStyle;" edge="1" parent="1">
          <mxGeometry width="50" height="50" relative="1" as="geometry">
            <mxPoint x="710" y="469.71" as="sourcePoint" />
            <mxPoint x="480" y="240" as="targetPoint" />
            <Array as="points">
              <mxPoint x="710" y="240" />
            </Array>
          </mxGeometry>
        </mxCell>
      </root>
    </mxGraphModel>
  </diagram>
</mxfile>
